<mxfile host="app.diagrams.net" modified="2023-08-04T11:47:42.521Z" agent="Mozilla/5.0 (Windows NT 10.0; Win64; x64; rv:109.0) Gecko/20100101 Firefox/115.0" etag="PiuvFqshRFzOhWXr2-3R" version="21.6.5" type="device">
  <diagram id="QJjx0-fPxzvcmYibJWj1" name="Page-1">
    <mxGraphModel dx="5736" dy="3528" grid="1" gridSize="10" guides="1" tooltips="1" connect="1" arrows="1" fold="1" page="0" pageScale="1" pageWidth="827" pageHeight="583" math="0" shadow="0">
      <root>
        <mxCell id="0" />
        <mxCell id="1" parent="0" />
        <mxCell id="m_Qu8GIRGxHgYCqS1YG2-1" value="" style="shape=cube;whiteSpace=wrap;html=1;boundedLbl=1;backgroundOutline=1;darkOpacity=0.05;darkOpacity2=0.1;size=110;direction=east;flipH=1;fillColor=#ffe6cc;strokeColor=#d79b00;fontSize=61;fontStyle=0" parent="1" vertex="1">
          <mxGeometry x="90" y="90" width="520" height="415" as="geometry" />
        </mxCell>
        <mxCell id="m_Qu8GIRGxHgYCqS1YG2-2" value="H x W x C" style="text;html=1;strokeColor=none;fillColor=none;align=center;verticalAlign=middle;whiteSpace=wrap;rounded=0;fontSize=61;fontStyle=0" parent="1" vertex="1">
          <mxGeometry x="145.25" y="505" width="309.5" height="100" as="geometry" />
        </mxCell>
        <mxCell id="Pfbvt9mmgzDX8GRQt6o7-2" value="" style="shape=cube;whiteSpace=wrap;html=1;boundedLbl=1;backgroundOutline=1;darkOpacity=0.05;darkOpacity2=0.1;flipH=1;size=10;fillColor=#f8cecc;strokeColor=#b85450;fontSize=61;fontStyle=0" parent="1" vertex="1">
          <mxGeometry x="90" y="190" width="420" height="30" as="geometry" />
        </mxCell>
        <mxCell id="Pfbvt9mmgzDX8GRQt6o7-66" value="C" style="text;html=1;strokeColor=none;fillColor=none;align=center;verticalAlign=middle;whiteSpace=wrap;rounded=0;fontSize=61;fontStyle=0" parent="1" vertex="1">
          <mxGeometry x="520" y="556.5" width="309.5" height="100" as="geometry" />
        </mxCell>
        <mxCell id="Pfbvt9mmgzDX8GRQt6o7-68" value="(C / 4) x 32" style="text;html=1;strokeColor=none;fillColor=none;align=center;verticalAlign=middle;whiteSpace=wrap;rounded=0;fontSize=61;fontStyle=0" parent="1" vertex="1">
          <mxGeometry x="1160" y="571.5" width="269.75" height="70" as="geometry" />
        </mxCell>
        <mxCell id="Pfbvt9mmgzDX8GRQt6o7-79" value="" style="group;fontSize=61;fontStyle=0" parent="1" vertex="1" connectable="0">
          <mxGeometry x="1250" y="212" width="80" height="160" as="geometry" />
        </mxCell>
        <mxCell id="EQMsb6BerHFTLHmI9SeI-25" value="" style="group;fontSize=61;fontStyle=0" parent="Pfbvt9mmgzDX8GRQt6o7-79" vertex="1" connectable="0">
          <mxGeometry x="10" y="-12" width="70" height="160" as="geometry" />
        </mxCell>
        <mxCell id="EQMsb6BerHFTLHmI9SeI-29" value="" style="group;fontSize=61;fontStyle=0" parent="EQMsb6BerHFTLHmI9SeI-25" vertex="1" connectable="0">
          <mxGeometry x="10" y="-10" width="60" height="160" as="geometry" />
        </mxCell>
        <mxCell id="EQMsb6BerHFTLHmI9SeI-30" value="" style="rounded=0;whiteSpace=wrap;html=1;rotation=-90;fillColor=#f8cecc;strokeColor=#b85450;fontSize=61;fontStyle=0" parent="EQMsb6BerHFTLHmI9SeI-29" vertex="1">
          <mxGeometry x="-50" y="50" width="160" height="60" as="geometry" />
        </mxCell>
        <mxCell id="EQMsb6BerHFTLHmI9SeI-31" value="" style="ellipse;whiteSpace=wrap;html=1;aspect=fixed;fontSize=61;fontStyle=0" parent="EQMsb6BerHFTLHmI9SeI-29" vertex="1">
          <mxGeometry x="5" y="25" width="50" height="50" as="geometry" />
        </mxCell>
        <mxCell id="EQMsb6BerHFTLHmI9SeI-32" value="" style="ellipse;whiteSpace=wrap;html=1;aspect=fixed;fontSize=61;fontStyle=0" parent="EQMsb6BerHFTLHmI9SeI-29" vertex="1">
          <mxGeometry x="5" y="85" width="50" height="50" as="geometry" />
        </mxCell>
        <mxCell id="EQMsb6BerHFTLHmI9SeI-26" value="" style="rounded=0;whiteSpace=wrap;html=1;rotation=-90;fillColor=#f8cecc;strokeColor=#b85450;fontSize=61;fontStyle=0" parent="EQMsb6BerHFTLHmI9SeI-25" vertex="1">
          <mxGeometry x="-50" y="50" width="160" height="60" as="geometry" />
        </mxCell>
        <mxCell id="EQMsb6BerHFTLHmI9SeI-27" value="" style="ellipse;whiteSpace=wrap;html=1;aspect=fixed;fontSize=61;fontStyle=0" parent="EQMsb6BerHFTLHmI9SeI-25" vertex="1">
          <mxGeometry x="5" y="25" width="50" height="50" as="geometry" />
        </mxCell>
        <mxCell id="EQMsb6BerHFTLHmI9SeI-28" value="" style="ellipse;whiteSpace=wrap;html=1;aspect=fixed;fontSize=61;fontStyle=0" parent="EQMsb6BerHFTLHmI9SeI-25" vertex="1">
          <mxGeometry x="5" y="85" width="50" height="50" as="geometry" />
        </mxCell>
        <mxCell id="Pfbvt9mmgzDX8GRQt6o7-24" value="" style="rounded=0;whiteSpace=wrap;html=1;rotation=-90;fillColor=#f8cecc;strokeColor=#b85450;fontSize=61;fontStyle=0" parent="Pfbvt9mmgzDX8GRQt6o7-79" vertex="1">
          <mxGeometry x="-50" y="50" width="160" height="60" as="geometry" />
        </mxCell>
        <mxCell id="Pfbvt9mmgzDX8GRQt6o7-25" value="" style="ellipse;whiteSpace=wrap;html=1;aspect=fixed;fontSize=61;fontStyle=0" parent="Pfbvt9mmgzDX8GRQt6o7-79" vertex="1">
          <mxGeometry x="5" y="25" width="50" height="50" as="geometry" />
        </mxCell>
        <mxCell id="Pfbvt9mmgzDX8GRQt6o7-26" value="" style="ellipse;whiteSpace=wrap;html=1;aspect=fixed;fontSize=61;fontStyle=0" parent="Pfbvt9mmgzDX8GRQt6o7-79" vertex="1">
          <mxGeometry x="5" y="85" width="50" height="50" as="geometry" />
        </mxCell>
        <mxCell id="Pfbvt9mmgzDX8GRQt6o7-4" value="" style="rounded=0;whiteSpace=wrap;html=1;rotation=-90;fillColor=#f8cecc;strokeColor=#b85450;fontSize=61;fontStyle=0" parent="1" vertex="1">
          <mxGeometry x="417.5" y="262.5" width="525" height="60" as="geometry" />
        </mxCell>
        <mxCell id="Pfbvt9mmgzDX8GRQt6o7-5" value="" style="ellipse;whiteSpace=wrap;html=1;aspect=fixed;fontSize=61;fontStyle=0" parent="1" vertex="1">
          <mxGeometry x="655" y="52.5" width="50" height="50" as="geometry" />
        </mxCell>
        <mxCell id="Pfbvt9mmgzDX8GRQt6o7-6" value="" style="ellipse;whiteSpace=wrap;html=1;aspect=fixed;fontSize=61;fontStyle=0" parent="1" vertex="1">
          <mxGeometry x="655" y="112.5" width="50" height="50" as="geometry" />
        </mxCell>
        <mxCell id="Pfbvt9mmgzDX8GRQt6o7-7" value="" style="ellipse;whiteSpace=wrap;html=1;aspect=fixed;fontSize=61;fontStyle=0" parent="1" vertex="1">
          <mxGeometry x="655" y="172.5" width="50" height="50" as="geometry" />
        </mxCell>
        <mxCell id="Pfbvt9mmgzDX8GRQt6o7-8" value="" style="ellipse;whiteSpace=wrap;html=1;aspect=fixed;fontSize=61;fontStyle=0" parent="1" vertex="1">
          <mxGeometry x="655" y="232.5" width="50" height="50" as="geometry" />
        </mxCell>
        <mxCell id="Pfbvt9mmgzDX8GRQt6o7-9" value="" style="ellipse;whiteSpace=wrap;html=1;aspect=fixed;fontSize=61;fontStyle=0" parent="1" vertex="1">
          <mxGeometry x="657.5" y="295" width="47.5" height="47.5" as="geometry" />
        </mxCell>
        <mxCell id="Pfbvt9mmgzDX8GRQt6o7-10" value="" style="ellipse;whiteSpace=wrap;html=1;aspect=fixed;fontSize=61;fontStyle=0" parent="1" vertex="1">
          <mxGeometry x="655" y="352.5" width="50" height="50" as="geometry" />
        </mxCell>
        <mxCell id="Pfbvt9mmgzDX8GRQt6o7-11" value="" style="ellipse;whiteSpace=wrap;html=1;aspect=fixed;fontSize=61;fontStyle=0" parent="1" vertex="1">
          <mxGeometry x="655" y="412.5" width="50" height="50" as="geometry" />
        </mxCell>
        <mxCell id="Pfbvt9mmgzDX8GRQt6o7-12" value="" style="shape=cube;whiteSpace=wrap;html=1;boundedLbl=1;backgroundOutline=1;darkOpacity=0.05;darkOpacity2=0.1;flipV=0;flipH=1;fillColor=#d5e8d4;strokeColor=#82b366;size=120;fontSize=61;fontStyle=0" parent="1" vertex="1">
          <mxGeometry x="760" y="73.5" width="140" height="440" as="geometry" />
        </mxCell>
        <mxCell id="Pfbvt9mmgzDX8GRQt6o7-22" value="" style="ellipse;whiteSpace=wrap;html=1;aspect=fixed;fontSize=61;fontStyle=0" parent="1" vertex="1">
          <mxGeometry x="655" y="478.5" width="50" height="50" as="geometry" />
        </mxCell>
        <mxCell id="Pfbvt9mmgzDX8GRQt6o7-23" value="" style="shape=cube;whiteSpace=wrap;html=1;boundedLbl=1;backgroundOutline=1;darkOpacity=0.05;darkOpacity2=0.1;flipV=0;flipH=1;fillColor=#d5e8d4;strokeColor=#82b366;size=120;fontSize=61;fontStyle=0" parent="1" vertex="1">
          <mxGeometry x="1040" y="76" width="140" height="440" as="geometry" />
        </mxCell>
        <mxCell id="Pfbvt9mmgzDX8GRQt6o7-67" value="&lt;div style=&quot;font-size: 61px;&quot;&gt;(C / 2) x 64&lt;/div&gt;" style="text;html=1;strokeColor=none;fillColor=none;align=center;verticalAlign=middle;whiteSpace=wrap;rounded=0;fontSize=61;fontStyle=0" parent="1" vertex="1">
          <mxGeometry x="820" y="561.5" width="282.5" height="90" as="geometry" />
        </mxCell>
        <mxCell id="Pfbvt9mmgzDX8GRQt6o7-85" value="" style="shape=cube;whiteSpace=wrap;html=1;boundedLbl=1;backgroundOutline=1;darkOpacity=0.05;darkOpacity2=0.1;flipV=0;flipH=1;fillColor=#dae8fc;strokeColor=#6c8ebf;size=120;fontSize=61;fontStyle=0" parent="1" vertex="1">
          <mxGeometry x="790" y="73.5" width="140" height="440" as="geometry" />
        </mxCell>
        <mxCell id="Pfbvt9mmgzDX8GRQt6o7-86" value="" style="shape=cube;whiteSpace=wrap;html=1;boundedLbl=1;backgroundOutline=1;darkOpacity=0.05;darkOpacity2=0.1;flipV=0;flipH=1;fillColor=#dae8fc;strokeColor=#6c8ebf;size=120;fontSize=61;fontStyle=0" parent="1" vertex="1">
          <mxGeometry x="1070" y="76" width="140" height="440" as="geometry" />
        </mxCell>
        <mxCell id="Pfbvt9mmgzDX8GRQt6o7-91" value="" style="group;fontSize=61;fontStyle=0" parent="1" vertex="1" connectable="0">
          <mxGeometry x="1050" y="910" width="1420" height="131.5" as="geometry" />
        </mxCell>
        <mxCell id="Pfbvt9mmgzDX8GRQt6o7-93" value="Max Pool / Stride 2 in Conv layer before " style="text;html=1;strokeColor=none;fillColor=none;align=left;verticalAlign=middle;whiteSpace=wrap;rounded=0;fontStyle=0;fontSize=61;" parent="Pfbvt9mmgzDX8GRQt6o7-91" vertex="1">
          <mxGeometry x="160" y="11.5" width="1260" height="120" as="geometry" />
        </mxCell>
        <mxCell id="Pfbvt9mmgzDX8GRQt6o7-89" value="" style="group;fontSize=61;fontStyle=0" parent="Pfbvt9mmgzDX8GRQt6o7-91" vertex="1" connectable="0">
          <mxGeometry y="-129.99999999999986" width="1204.3490701001429" height="120" as="geometry" />
        </mxCell>
        <mxCell id="Pfbvt9mmgzDX8GRQt6o7-74" value="" style="shape=cube;whiteSpace=wrap;html=1;boundedLbl=1;backgroundOutline=1;darkOpacity=0.05;darkOpacity2=0.1;size=40;direction=east;flipH=1;fillColor=#d5e8d4;strokeColor=#82b366;fontSize=61;fontStyle=0" parent="Pfbvt9mmgzDX8GRQt6o7-89" vertex="1">
          <mxGeometry width="120" height="120" as="geometry" />
        </mxCell>
        <mxCell id="Pfbvt9mmgzDX8GRQt6o7-75" value="1-D Conv layer + LeakyReLU" style="text;html=1;strokeColor=none;fillColor=none;align=left;verticalAlign=middle;whiteSpace=wrap;rounded=0;fontStyle=0;fontSize=61;" parent="Pfbvt9mmgzDX8GRQt6o7-89" vertex="1">
          <mxGeometry x="159.99549356223176" y="1.1368683772161592e-13" width="912.5035765379113" height="119.99999999999989" as="geometry" />
        </mxCell>
        <mxCell id="Pfbvt9mmgzDX8GRQt6o7-96" value="" style="group;fontSize=61;fontStyle=0" parent="1" vertex="1" connectable="0">
          <mxGeometry x="1940" y="26.5" width="1119.37" height="620" as="geometry" />
        </mxCell>
        <mxCell id="Pfbvt9mmgzDX8GRQt6o7-62" value="" style="shape=cube;whiteSpace=wrap;html=1;boundedLbl=1;backgroundOutline=1;darkOpacity=0.05;darkOpacity2=0.1;size=110;direction=east;flipH=1;fillColor=#ffe6cc;strokeColor=#d79b00;container=0;fontSize=61;fontStyle=0" parent="Pfbvt9mmgzDX8GRQt6o7-96" vertex="1">
          <mxGeometry x="599.3699999999999" y="55" width="520" height="415" as="geometry" />
        </mxCell>
        <mxCell id="Pfbvt9mmgzDX8GRQt6o7-65" value="" style="shape=cube;whiteSpace=wrap;html=1;boundedLbl=1;backgroundOutline=1;darkOpacity=0.05;darkOpacity2=0.1;flipH=1;size=10;fillColor=#f8cecc;strokeColor=#b85450;container=0;fontSize=61;fontStyle=0" parent="Pfbvt9mmgzDX8GRQt6o7-96" vertex="1">
          <mxGeometry x="599.3699999999999" y="157.5" width="420" height="30" as="geometry" />
        </mxCell>
        <mxCell id="Pfbvt9mmgzDX8GRQt6o7-71" value="H x W x C" style="text;html=1;strokeColor=none;fillColor=none;align=center;verticalAlign=middle;whiteSpace=wrap;rounded=0;fontSize=61;container=0;fontStyle=0" parent="Pfbvt9mmgzDX8GRQt6o7-96" vertex="1">
          <mxGeometry x="677.1199999999999" y="481" width="279.5" height="80" as="geometry" />
        </mxCell>
        <mxCell id="Pfbvt9mmgzDX8GRQt6o7-45" value="" style="rounded=0;whiteSpace=wrap;html=1;rotation=-90;fillColor=#f8cecc;strokeColor=#b85450;fontSize=61;fontStyle=0" parent="Pfbvt9mmgzDX8GRQt6o7-96" vertex="1">
          <mxGeometry x="265" y="232.5" width="525" height="60" as="geometry" />
        </mxCell>
        <mxCell id="Pfbvt9mmgzDX8GRQt6o7-46" value="" style="ellipse;whiteSpace=wrap;html=1;aspect=fixed;container=0;fontSize=61;fontStyle=0" parent="Pfbvt9mmgzDX8GRQt6o7-96" vertex="1">
          <mxGeometry x="502.5" y="22.5" width="50" height="50" as="geometry" />
        </mxCell>
        <mxCell id="Pfbvt9mmgzDX8GRQt6o7-47" value="" style="ellipse;whiteSpace=wrap;html=1;aspect=fixed;container=0;fontSize=61;fontStyle=0" parent="Pfbvt9mmgzDX8GRQt6o7-96" vertex="1">
          <mxGeometry x="502.5" y="82.5" width="50" height="50" as="geometry" />
        </mxCell>
        <mxCell id="Pfbvt9mmgzDX8GRQt6o7-48" value="" style="ellipse;whiteSpace=wrap;html=1;aspect=fixed;container=0;fontSize=61;fontStyle=0" parent="Pfbvt9mmgzDX8GRQt6o7-96" vertex="1">
          <mxGeometry x="502.5" y="142.5" width="50" height="50" as="geometry" />
        </mxCell>
        <mxCell id="Pfbvt9mmgzDX8GRQt6o7-49" value="" style="ellipse;whiteSpace=wrap;html=1;aspect=fixed;container=0;fontSize=61;fontStyle=0" parent="Pfbvt9mmgzDX8GRQt6o7-96" vertex="1">
          <mxGeometry x="502.5" y="202.5" width="50" height="50" as="geometry" />
        </mxCell>
        <mxCell id="Pfbvt9mmgzDX8GRQt6o7-50" value="" style="ellipse;whiteSpace=wrap;html=1;aspect=fixed;container=0;fontSize=61;fontStyle=0" parent="Pfbvt9mmgzDX8GRQt6o7-96" vertex="1">
          <mxGeometry x="502.5" y="265" width="47.5" height="47.5" as="geometry" />
        </mxCell>
        <mxCell id="Pfbvt9mmgzDX8GRQt6o7-51" value="" style="ellipse;whiteSpace=wrap;html=1;aspect=fixed;container=0;fontSize=61;fontStyle=0" parent="Pfbvt9mmgzDX8GRQt6o7-96" vertex="1">
          <mxGeometry x="502.5" y="322.5" width="50" height="50" as="geometry" />
        </mxCell>
        <mxCell id="Pfbvt9mmgzDX8GRQt6o7-52" value="" style="ellipse;whiteSpace=wrap;html=1;aspect=fixed;container=0;fontSize=61;fontStyle=0" parent="Pfbvt9mmgzDX8GRQt6o7-96" vertex="1">
          <mxGeometry x="502.5" y="382.5" width="50" height="50" as="geometry" />
        </mxCell>
        <mxCell id="Pfbvt9mmgzDX8GRQt6o7-59" value="" style="ellipse;whiteSpace=wrap;html=1;aspect=fixed;container=0;fontSize=61;fontStyle=0" parent="Pfbvt9mmgzDX8GRQt6o7-96" vertex="1">
          <mxGeometry x="502.5" y="448.5" width="50" height="50" as="geometry" />
        </mxCell>
        <mxCell id="Pfbvt9mmgzDX8GRQt6o7-70" value="C" style="text;html=1;strokeColor=none;fillColor=none;align=center;verticalAlign=middle;whiteSpace=wrap;rounded=0;fontSize=61;container=0;fontStyle=0" parent="Pfbvt9mmgzDX8GRQt6o7-96" vertex="1">
          <mxGeometry x="452.5" y="535" width="150" height="80" as="geometry" />
        </mxCell>
        <mxCell id="Pfbvt9mmgzDX8GRQt6o7-60" value="" style="shape=cube;whiteSpace=wrap;html=1;boundedLbl=1;backgroundOutline=1;darkOpacity=0.05;darkOpacity2=0.1;flipV=0;flipH=1;fillColor=#d5e8d4;strokeColor=#82b366;size=120;container=0;fontSize=61;fontStyle=0" parent="Pfbvt9mmgzDX8GRQt6o7-96" vertex="1">
          <mxGeometry y="46" width="140" height="440" as="geometry" />
        </mxCell>
        <mxCell id="Pfbvt9mmgzDX8GRQt6o7-87" value="" style="shape=cube;whiteSpace=wrap;html=1;boundedLbl=1;backgroundOutline=1;darkOpacity=0.05;darkOpacity2=0.1;flipV=0;flipH=1;fillColor=#dae8fc;strokeColor=#6c8ebf;size=120;container=0;fontSize=61;fontStyle=0" parent="Pfbvt9mmgzDX8GRQt6o7-96" vertex="1">
          <mxGeometry x="30" y="46" width="140" height="440" as="geometry" />
        </mxCell>
        <mxCell id="Pfbvt9mmgzDX8GRQt6o7-53" value="" style="shape=cube;whiteSpace=wrap;html=1;boundedLbl=1;backgroundOutline=1;darkOpacity=0.05;darkOpacity2=0.1;flipV=0;flipH=1;fillColor=#d5e8d4;strokeColor=#82b366;size=120;container=0;fontSize=61;fontStyle=0" parent="Pfbvt9mmgzDX8GRQt6o7-96" vertex="1">
          <mxGeometry x="290" y="43.5" width="140" height="440" as="geometry" />
        </mxCell>
        <mxCell id="Pfbvt9mmgzDX8GRQt6o7-88" value="" style="shape=cube;whiteSpace=wrap;html=1;boundedLbl=1;backgroundOutline=1;darkOpacity=0.05;darkOpacity2=0.1;flipV=0;flipH=1;fillColor=#dae8fc;strokeColor=#6c8ebf;size=120;container=0;fontSize=61;fontStyle=0" parent="Pfbvt9mmgzDX8GRQt6o7-96" vertex="1">
          <mxGeometry x="320" y="43.5" width="140" height="440" as="geometry" />
        </mxCell>
        <mxCell id="Pfbvt9mmgzDX8GRQt6o7-122" value="&lt;div style=&quot;font-size: 61px;&quot;&gt;(C / 2) x 64&lt;/div&gt;" style="text;html=1;strokeColor=none;fillColor=none;align=center;verticalAlign=middle;whiteSpace=wrap;rounded=0;fontSize=61;fontStyle=0" parent="Pfbvt9mmgzDX8GRQt6o7-96" vertex="1">
          <mxGeometry x="90" y="535" width="282.5" height="90" as="geometry" />
        </mxCell>
        <mxCell id="EQMsb6BerHFTLHmI9SeI-45" value="" style="group;fontSize=61;fontStyle=0" parent="Pfbvt9mmgzDX8GRQt6o7-96" vertex="1" connectable="0">
          <mxGeometry x="182.5" y="131" width="97.5" height="280" as="geometry" />
        </mxCell>
        <mxCell id="EQMsb6BerHFTLHmI9SeI-46" value="" style="group;fontSize=61;fontStyle=0" parent="EQMsb6BerHFTLHmI9SeI-45" vertex="1" connectable="0">
          <mxGeometry x="17.5" y="-17.5" width="80" height="280" as="geometry" />
        </mxCell>
        <mxCell id="EQMsb6BerHFTLHmI9SeI-47" value="" style="group;fontSize=61;fontStyle=0" parent="EQMsb6BerHFTLHmI9SeI-46" vertex="1" connectable="0">
          <mxGeometry x="20" y="-20" width="60" height="280" as="geometry" />
        </mxCell>
        <mxCell id="EQMsb6BerHFTLHmI9SeI-48" value="" style="rounded=0;whiteSpace=wrap;html=1;rotation=-90;fillColor=#f8cecc;strokeColor=#b85450;fontSize=61;fontStyle=0" parent="EQMsb6BerHFTLHmI9SeI-47" vertex="1">
          <mxGeometry x="-110" y="110" width="280" height="60" as="geometry" />
        </mxCell>
        <mxCell id="EQMsb6BerHFTLHmI9SeI-49" value="" style="ellipse;whiteSpace=wrap;html=1;aspect=fixed;fontSize=61;fontStyle=0" parent="EQMsb6BerHFTLHmI9SeI-47" vertex="1">
          <mxGeometry x="5" y="25" width="50" height="50" as="geometry" />
        </mxCell>
        <mxCell id="EQMsb6BerHFTLHmI9SeI-50" value="" style="ellipse;whiteSpace=wrap;html=1;aspect=fixed;fontSize=61;fontStyle=0" parent="EQMsb6BerHFTLHmI9SeI-47" vertex="1">
          <mxGeometry x="5" y="85" width="50" height="50" as="geometry" />
        </mxCell>
        <mxCell id="EQMsb6BerHFTLHmI9SeI-51" value="" style="ellipse;whiteSpace=wrap;html=1;aspect=fixed;fontSize=61;fontStyle=0" parent="EQMsb6BerHFTLHmI9SeI-47" vertex="1">
          <mxGeometry x="2.5" y="142.5" width="52.5" height="52.5" as="geometry" />
        </mxCell>
        <mxCell id="EQMsb6BerHFTLHmI9SeI-52" value="" style="ellipse;whiteSpace=wrap;html=1;aspect=fixed;fontSize=61;fontStyle=0" parent="EQMsb6BerHFTLHmI9SeI-47" vertex="1">
          <mxGeometry x="5" y="205" width="50" height="50" as="geometry" />
        </mxCell>
        <mxCell id="EQMsb6BerHFTLHmI9SeI-53" value="" style="rounded=0;whiteSpace=wrap;html=1;rotation=-90;fillColor=#f8cecc;strokeColor=#b85450;fontSize=61;fontStyle=0" parent="EQMsb6BerHFTLHmI9SeI-46" vertex="1">
          <mxGeometry x="-110" y="110" width="280" height="60" as="geometry" />
        </mxCell>
        <mxCell id="EQMsb6BerHFTLHmI9SeI-54" value="" style="ellipse;whiteSpace=wrap;html=1;aspect=fixed;fontSize=61;fontStyle=0" parent="EQMsb6BerHFTLHmI9SeI-46" vertex="1">
          <mxGeometry x="5" y="25" width="50" height="50" as="geometry" />
        </mxCell>
        <mxCell id="EQMsb6BerHFTLHmI9SeI-55" value="" style="ellipse;whiteSpace=wrap;html=1;aspect=fixed;fontSize=61;fontStyle=0" parent="EQMsb6BerHFTLHmI9SeI-46" vertex="1">
          <mxGeometry x="5" y="85" width="50" height="50" as="geometry" />
        </mxCell>
        <mxCell id="EQMsb6BerHFTLHmI9SeI-56" value="" style="ellipse;whiteSpace=wrap;html=1;aspect=fixed;fontSize=61;fontStyle=0" parent="EQMsb6BerHFTLHmI9SeI-46" vertex="1">
          <mxGeometry x="2.5" y="142.5" width="52.5" height="52.5" as="geometry" />
        </mxCell>
        <mxCell id="EQMsb6BerHFTLHmI9SeI-57" value="" style="ellipse;whiteSpace=wrap;html=1;aspect=fixed;fontSize=61;fontStyle=0" parent="EQMsb6BerHFTLHmI9SeI-46" vertex="1">
          <mxGeometry x="5" y="205" width="50" height="50" as="geometry" />
        </mxCell>
        <mxCell id="EQMsb6BerHFTLHmI9SeI-58" value="" style="rounded=0;whiteSpace=wrap;html=1;rotation=-90;fillColor=#f8cecc;strokeColor=#b85450;fontSize=61;fontStyle=0" parent="EQMsb6BerHFTLHmI9SeI-45" vertex="1">
          <mxGeometry x="-110" y="110" width="280" height="60" as="geometry" />
        </mxCell>
        <mxCell id="EQMsb6BerHFTLHmI9SeI-59" value="" style="ellipse;whiteSpace=wrap;html=1;aspect=fixed;fontSize=61;fontStyle=0" parent="EQMsb6BerHFTLHmI9SeI-45" vertex="1">
          <mxGeometry x="5" y="25" width="50" height="50" as="geometry" />
        </mxCell>
        <mxCell id="EQMsb6BerHFTLHmI9SeI-60" value="" style="ellipse;whiteSpace=wrap;html=1;aspect=fixed;fontSize=61;fontStyle=0" parent="EQMsb6BerHFTLHmI9SeI-45" vertex="1">
          <mxGeometry x="5" y="85" width="50" height="50" as="geometry" />
        </mxCell>
        <mxCell id="EQMsb6BerHFTLHmI9SeI-61" value="" style="ellipse;whiteSpace=wrap;html=1;aspect=fixed;fontSize=61;fontStyle=0" parent="EQMsb6BerHFTLHmI9SeI-45" vertex="1">
          <mxGeometry x="2.5" y="142.5" width="52.5" height="52.5" as="geometry" />
        </mxCell>
        <mxCell id="EQMsb6BerHFTLHmI9SeI-62" value="" style="ellipse;whiteSpace=wrap;html=1;aspect=fixed;fontSize=61;fontStyle=0" parent="EQMsb6BerHFTLHmI9SeI-45" vertex="1">
          <mxGeometry x="5" y="205" width="50" height="50" as="geometry" />
        </mxCell>
        <mxCell id="Pfbvt9mmgzDX8GRQt6o7-92" value="" style="shape=cube;whiteSpace=wrap;html=1;boundedLbl=1;backgroundOutline=1;darkOpacity=0.05;darkOpacity2=0.1;size=40;direction=east;flipH=1;fillColor=#dae8fc;strokeColor=#6c8ebf;fontSize=61;fontStyle=0" parent="1" vertex="1">
          <mxGeometry x="1050" y="920" width="122.5" height="120" as="geometry" />
        </mxCell>
        <mxCell id="Pfbvt9mmgzDX8GRQt6o7-97" value="" style="group;fontSize=61;fontStyle=0" parent="1" vertex="1" connectable="0">
          <mxGeometry x="1445.13" y="-108.75" width="269.99" height="271.25" as="geometry" />
        </mxCell>
        <mxCell id="Pfbvt9mmgzDX8GRQt6o7-83" value="" style="triangle;whiteSpace=wrap;html=1;fontSize=61;rotation=90;fillColor=#666666;fillStyle=auto;gradientColor=none;fontStyle=0" parent="Pfbvt9mmgzDX8GRQt6o7-97" vertex="1">
          <mxGeometry x="41.87000000000012" y="115" width="186.25" height="126.25" as="geometry" />
        </mxCell>
        <mxCell id="Pfbvt9mmgzDX8GRQt6o7-84" value="Bottleneck" style="text;html=1;strokeColor=none;fillColor=none;align=center;verticalAlign=middle;whiteSpace=wrap;rounded=0;fontSize=61;fontStyle=0" parent="Pfbvt9mmgzDX8GRQt6o7-97" vertex="1">
          <mxGeometry width="269.99" height="80" as="geometry" />
        </mxCell>
        <mxCell id="Pfbvt9mmgzDX8GRQt6o7-98" value="" style="shape=cube;whiteSpace=wrap;html=1;boundedLbl=1;backgroundOutline=1;darkOpacity=0.05;darkOpacity2=0.1;flipV=0;flipH=1;fillColor=#d5e8d4;strokeColor=#82b366;size=120;fontSize=61;fontStyle=0" parent="1" vertex="1">
          <mxGeometry x="1349.99" y="72" width="140" height="440" as="geometry" />
        </mxCell>
        <mxCell id="Pfbvt9mmgzDX8GRQt6o7-99" value="" style="group;fontSize=61;fontStyle=0" parent="1" vertex="1" connectable="0">
          <mxGeometry x="1550" y="212" width="60" height="160" as="geometry" />
        </mxCell>
        <mxCell id="Pfbvt9mmgzDX8GRQt6o7-100" value="" style="rounded=0;whiteSpace=wrap;html=1;rotation=-90;fillColor=#f8cecc;strokeColor=#b85450;fontSize=61;fontStyle=0" parent="Pfbvt9mmgzDX8GRQt6o7-99" vertex="1">
          <mxGeometry x="-50" y="50" width="160" height="60" as="geometry" />
        </mxCell>
        <mxCell id="Pfbvt9mmgzDX8GRQt6o7-101" value="" style="ellipse;whiteSpace=wrap;html=1;aspect=fixed;fontSize=61;fontStyle=0" parent="Pfbvt9mmgzDX8GRQt6o7-99" vertex="1">
          <mxGeometry x="5" y="25" width="50" height="50" as="geometry" />
        </mxCell>
        <mxCell id="Pfbvt9mmgzDX8GRQt6o7-102" value="" style="ellipse;whiteSpace=wrap;html=1;aspect=fixed;fontSize=61;fontStyle=0" parent="Pfbvt9mmgzDX8GRQt6o7-99" vertex="1">
          <mxGeometry x="5" y="85" width="50" height="50" as="geometry" />
        </mxCell>
        <mxCell id="Pfbvt9mmgzDX8GRQt6o7-108" value="" style="shape=cube;whiteSpace=wrap;html=1;boundedLbl=1;backgroundOutline=1;darkOpacity=0.05;darkOpacity2=0.1;flipV=0;flipH=1;fillColor=#d5e8d4;strokeColor=#82b366;size=120;fontSize=61;fontStyle=0" parent="1" vertex="1">
          <mxGeometry x="1380" y="72" width="140" height="440" as="geometry" />
        </mxCell>
        <mxCell id="Pfbvt9mmgzDX8GRQt6o7-109" value="(C / 4)" style="text;html=1;strokeColor=none;fillColor=none;align=center;verticalAlign=middle;whiteSpace=wrap;rounded=0;fontSize=61;fontStyle=0" parent="1" vertex="1">
          <mxGeometry x="1445.1200000000001" y="571.5" width="269.75" height="70" as="geometry" />
        </mxCell>
        <mxCell id="Pfbvt9mmgzDX8GRQt6o7-110" value="" style="shape=cube;whiteSpace=wrap;html=1;boundedLbl=1;backgroundOutline=1;darkOpacity=0.05;darkOpacity2=0.1;flipV=0;flipH=1;fillColor=#d5e8d4;strokeColor=#82b366;size=120;fontSize=61;fontStyle=0" parent="1" vertex="1">
          <mxGeometry x="1640" y="72" width="140" height="440" as="geometry" />
        </mxCell>
        <mxCell id="Pfbvt9mmgzDX8GRQt6o7-111" value="" style="shape=cube;whiteSpace=wrap;html=1;boundedLbl=1;backgroundOutline=1;darkOpacity=0.05;darkOpacity2=0.1;flipV=0;flipH=1;fillColor=#d5e8d4;strokeColor=#82b366;size=120;fontSize=61;fontStyle=0" parent="1" vertex="1">
          <mxGeometry x="1670.01" y="72" width="140" height="440" as="geometry" />
        </mxCell>
        <mxCell id="Pfbvt9mmgzDX8GRQt6o7-121" value="(C / 4) x 32" style="text;html=1;strokeColor=none;fillColor=none;align=center;verticalAlign=middle;whiteSpace=wrap;rounded=0;fontSize=61;fontStyle=0" parent="1" vertex="1">
          <mxGeometry x="1730" y="581.5" width="269.75" height="70" as="geometry" />
        </mxCell>
        <mxCell id="EQMsb6BerHFTLHmI9SeI-1" value="" style="group;fontSize=61;fontStyle=0" parent="1" vertex="1" connectable="0">
          <mxGeometry x="942.5" y="157.5" width="97.5" height="280" as="geometry" />
        </mxCell>
        <mxCell id="EQMsb6BerHFTLHmI9SeI-3" value="" style="group;fontSize=61;fontStyle=0" parent="EQMsb6BerHFTLHmI9SeI-1" vertex="1" connectable="0">
          <mxGeometry x="17.5" y="-17.5" width="80" height="280" as="geometry" />
        </mxCell>
        <mxCell id="EQMsb6BerHFTLHmI9SeI-11" value="" style="group;fontSize=61;fontStyle=0" parent="EQMsb6BerHFTLHmI9SeI-3" vertex="1" connectable="0">
          <mxGeometry x="20" y="-20" width="60" height="280" as="geometry" />
        </mxCell>
        <mxCell id="EQMsb6BerHFTLHmI9SeI-12" value="" style="rounded=0;whiteSpace=wrap;html=1;rotation=-90;fillColor=#f8cecc;strokeColor=#b85450;fontSize=61;fontStyle=0" parent="EQMsb6BerHFTLHmI9SeI-11" vertex="1">
          <mxGeometry x="-110" y="110" width="280" height="60" as="geometry" />
        </mxCell>
        <mxCell id="EQMsb6BerHFTLHmI9SeI-13" value="" style="ellipse;whiteSpace=wrap;html=1;aspect=fixed;fontSize=61;fontStyle=0" parent="EQMsb6BerHFTLHmI9SeI-11" vertex="1">
          <mxGeometry x="5" y="25" width="50" height="50" as="geometry" />
        </mxCell>
        <mxCell id="EQMsb6BerHFTLHmI9SeI-14" value="" style="ellipse;whiteSpace=wrap;html=1;aspect=fixed;fontSize=61;fontStyle=0" parent="EQMsb6BerHFTLHmI9SeI-11" vertex="1">
          <mxGeometry x="5" y="85" width="50" height="50" as="geometry" />
        </mxCell>
        <mxCell id="EQMsb6BerHFTLHmI9SeI-15" value="" style="ellipse;whiteSpace=wrap;html=1;aspect=fixed;fontSize=61;fontStyle=0" parent="EQMsb6BerHFTLHmI9SeI-11" vertex="1">
          <mxGeometry x="2.5" y="142.5" width="52.5" height="52.5" as="geometry" />
        </mxCell>
        <mxCell id="EQMsb6BerHFTLHmI9SeI-16" value="" style="ellipse;whiteSpace=wrap;html=1;aspect=fixed;fontSize=61;fontStyle=0" parent="EQMsb6BerHFTLHmI9SeI-11" vertex="1">
          <mxGeometry x="5" y="205" width="50" height="50" as="geometry" />
        </mxCell>
        <mxCell id="EQMsb6BerHFTLHmI9SeI-4" value="" style="rounded=0;whiteSpace=wrap;html=1;rotation=-90;fillColor=#f8cecc;strokeColor=#b85450;fontSize=61;fontStyle=0" parent="EQMsb6BerHFTLHmI9SeI-3" vertex="1">
          <mxGeometry x="-110" y="110" width="280" height="60" as="geometry" />
        </mxCell>
        <mxCell id="EQMsb6BerHFTLHmI9SeI-5" value="" style="ellipse;whiteSpace=wrap;html=1;aspect=fixed;fontSize=61;fontStyle=0" parent="EQMsb6BerHFTLHmI9SeI-3" vertex="1">
          <mxGeometry x="5" y="25" width="50" height="50" as="geometry" />
        </mxCell>
        <mxCell id="EQMsb6BerHFTLHmI9SeI-6" value="" style="ellipse;whiteSpace=wrap;html=1;aspect=fixed;fontSize=61;fontStyle=0" parent="EQMsb6BerHFTLHmI9SeI-3" vertex="1">
          <mxGeometry x="5" y="85" width="50" height="50" as="geometry" />
        </mxCell>
        <mxCell id="EQMsb6BerHFTLHmI9SeI-7" value="" style="ellipse;whiteSpace=wrap;html=1;aspect=fixed;fontSize=61;fontStyle=0" parent="EQMsb6BerHFTLHmI9SeI-3" vertex="1">
          <mxGeometry x="2.5" y="142.5" width="52.5" height="52.5" as="geometry" />
        </mxCell>
        <mxCell id="EQMsb6BerHFTLHmI9SeI-8" value="" style="ellipse;whiteSpace=wrap;html=1;aspect=fixed;fontSize=61;fontStyle=0" parent="EQMsb6BerHFTLHmI9SeI-3" vertex="1">
          <mxGeometry x="5" y="205" width="50" height="50" as="geometry" />
        </mxCell>
        <mxCell id="Pfbvt9mmgzDX8GRQt6o7-14" value="" style="rounded=0;whiteSpace=wrap;html=1;rotation=-90;fillColor=#f8cecc;strokeColor=#b85450;fontSize=61;fontStyle=0" parent="EQMsb6BerHFTLHmI9SeI-1" vertex="1">
          <mxGeometry x="-110" y="110" width="280" height="60" as="geometry" />
        </mxCell>
        <mxCell id="Pfbvt9mmgzDX8GRQt6o7-15" value="" style="ellipse;whiteSpace=wrap;html=1;aspect=fixed;fontSize=61;fontStyle=0" parent="EQMsb6BerHFTLHmI9SeI-1" vertex="1">
          <mxGeometry x="5" y="25" width="50" height="50" as="geometry" />
        </mxCell>
        <mxCell id="Pfbvt9mmgzDX8GRQt6o7-16" value="" style="ellipse;whiteSpace=wrap;html=1;aspect=fixed;fontSize=61;fontStyle=0" parent="EQMsb6BerHFTLHmI9SeI-1" vertex="1">
          <mxGeometry x="5" y="85" width="50" height="50" as="geometry" />
        </mxCell>
        <mxCell id="Pfbvt9mmgzDX8GRQt6o7-17" value="" style="ellipse;whiteSpace=wrap;html=1;aspect=fixed;fontSize=61;fontStyle=0" parent="EQMsb6BerHFTLHmI9SeI-1" vertex="1">
          <mxGeometry x="2.5" y="142.5" width="52.5" height="52.5" as="geometry" />
        </mxCell>
        <mxCell id="Pfbvt9mmgzDX8GRQt6o7-18" value="" style="ellipse;whiteSpace=wrap;html=1;aspect=fixed;fontSize=61;fontStyle=0" parent="EQMsb6BerHFTLHmI9SeI-1" vertex="1">
          <mxGeometry x="5" y="205" width="50" height="50" as="geometry" />
        </mxCell>
        <mxCell id="EQMsb6BerHFTLHmI9SeI-33" value="" style="group;fontSize=61;fontStyle=0" parent="1" vertex="1" connectable="0">
          <mxGeometry x="1840" y="212" width="80" height="160" as="geometry" />
        </mxCell>
        <mxCell id="EQMsb6BerHFTLHmI9SeI-34" value="" style="group;fontSize=61;fontStyle=0" parent="EQMsb6BerHFTLHmI9SeI-33" vertex="1" connectable="0">
          <mxGeometry x="10" y="-12" width="70" height="160" as="geometry" />
        </mxCell>
        <mxCell id="EQMsb6BerHFTLHmI9SeI-35" value="" style="group;fontSize=61;fontStyle=0" parent="EQMsb6BerHFTLHmI9SeI-34" vertex="1" connectable="0">
          <mxGeometry x="10" y="-10" width="60" height="160" as="geometry" />
        </mxCell>
        <mxCell id="EQMsb6BerHFTLHmI9SeI-36" value="" style="rounded=0;whiteSpace=wrap;html=1;rotation=-90;fillColor=#f8cecc;strokeColor=#b85450;fontSize=61;fontStyle=0" parent="EQMsb6BerHFTLHmI9SeI-35" vertex="1">
          <mxGeometry x="-50" y="50" width="160" height="60" as="geometry" />
        </mxCell>
        <mxCell id="EQMsb6BerHFTLHmI9SeI-37" value="" style="ellipse;whiteSpace=wrap;html=1;aspect=fixed;fontSize=61;fontStyle=0" parent="EQMsb6BerHFTLHmI9SeI-35" vertex="1">
          <mxGeometry x="5" y="25" width="50" height="50" as="geometry" />
        </mxCell>
        <mxCell id="EQMsb6BerHFTLHmI9SeI-38" value="" style="ellipse;whiteSpace=wrap;html=1;aspect=fixed;fontSize=61;fontStyle=0" parent="EQMsb6BerHFTLHmI9SeI-35" vertex="1">
          <mxGeometry x="5" y="85" width="50" height="50" as="geometry" />
        </mxCell>
        <mxCell id="EQMsb6BerHFTLHmI9SeI-39" value="" style="rounded=0;whiteSpace=wrap;html=1;rotation=-90;fillColor=#f8cecc;strokeColor=#b85450;fontSize=61;fontStyle=0" parent="EQMsb6BerHFTLHmI9SeI-34" vertex="1">
          <mxGeometry x="-50" y="50" width="160" height="60" as="geometry" />
        </mxCell>
        <mxCell id="EQMsb6BerHFTLHmI9SeI-40" value="" style="ellipse;whiteSpace=wrap;html=1;aspect=fixed;fontSize=61;fontStyle=0" parent="EQMsb6BerHFTLHmI9SeI-34" vertex="1">
          <mxGeometry x="5" y="25" width="50" height="50" as="geometry" />
        </mxCell>
        <mxCell id="EQMsb6BerHFTLHmI9SeI-41" value="" style="ellipse;whiteSpace=wrap;html=1;aspect=fixed;fontSize=61;fontStyle=0" parent="EQMsb6BerHFTLHmI9SeI-34" vertex="1">
          <mxGeometry x="5" y="85" width="50" height="50" as="geometry" />
        </mxCell>
        <mxCell id="EQMsb6BerHFTLHmI9SeI-42" value="" style="rounded=0;whiteSpace=wrap;html=1;rotation=-90;fillColor=#f8cecc;strokeColor=#b85450;fontSize=61;fontStyle=0" parent="EQMsb6BerHFTLHmI9SeI-33" vertex="1">
          <mxGeometry x="-50" y="50" width="160" height="60" as="geometry" />
        </mxCell>
        <mxCell id="EQMsb6BerHFTLHmI9SeI-43" value="" style="ellipse;whiteSpace=wrap;html=1;aspect=fixed;fontSize=61;fontStyle=0" parent="EQMsb6BerHFTLHmI9SeI-33" vertex="1">
          <mxGeometry x="5" y="25" width="50" height="50" as="geometry" />
        </mxCell>
        <mxCell id="EQMsb6BerHFTLHmI9SeI-44" value="" style="ellipse;whiteSpace=wrap;html=1;aspect=fixed;fontSize=61;fontStyle=0" parent="EQMsb6BerHFTLHmI9SeI-33" vertex="1">
          <mxGeometry x="5" y="85" width="50" height="50" as="geometry" />
        </mxCell>
        <mxCell id="BwLXGA79xSWh7LYIkBdd-1" style="edgeStyle=orthogonalEdgeStyle;rounded=0;orthogonalLoop=1;jettySize=auto;html=1;exitX=0.5;exitY=1;exitDx=0;exitDy=0;entryX=0.5;entryY=0.55;entryDx=0;entryDy=0;entryPerimeter=0;fontStyle=0" parent="1" source="Pfbvt9mmgzDX8GRQt6o7-109" target="Pfbvt9mmgzDX8GRQt6o7-109" edge="1">
          <mxGeometry relative="1" as="geometry" />
        </mxCell>
      </root>
    </mxGraphModel>
  </diagram>
</mxfile>
